<svg width="86" height="17" viewBox="0 0 86 17" fill="none" xmlns="http://www.w3.org/2000/svg">
<path d="M15.4639 4.94727C15.4639 5.14648 15.458 5.44531 15.4463 5.84375C15.4463 6.24219 15.4346 6.69336 15.4111 7.19727C15.3877 7.68945 15.3525 8.20508 15.3057 8.74414C15.2705 9.27148 15.2178 9.76953 15.1475 10.2383C15.0771 10.707 14.9893 11.1172 14.8838 11.4688C14.79 11.8203 14.6729 12.0547 14.5322 12.1719C14.4268 12.2656 14.2861 12.3594 14.1104 12.4531C13.9463 12.5469 13.7705 12.6348 13.583 12.7168C13.4072 12.7988 13.2314 12.875 13.0557 12.9453C12.8799 13.0039 12.7217 13.0508 12.5811 13.0859C12.8037 13.6133 13.0205 14.1289 13.2314 14.6328C13.4424 15.1484 13.6533 15.6699 13.8643 16.1973L11.2627 16.8125C10.9229 16.3203 10.6006 15.8281 10.2959 15.3359C10.0029 14.8438 9.68652 14.3574 9.34668 13.877C9.25293 13.8887 9.15918 13.8945 9.06543 13.8945C8.97168 13.8945 8.87793 13.8945 8.78418 13.8945C8.58496 13.8945 8.28613 13.8828 7.8877 13.8594C7.50098 13.8359 7.06152 13.8008 6.56934 13.7539C6.08887 13.707 5.58496 13.6484 5.05762 13.5781C4.53027 13.5078 4.03809 13.4316 3.58105 13.3496C3.13574 13.2676 2.74902 13.1738 2.4209 13.0684C2.09277 12.9629 1.88184 12.8516 1.78809 12.7344C1.62402 12.5352 1.4834 12.207 1.36621 11.75C1.26074 11.2812 1.17285 10.7832 1.10254 10.2559C1.03223 9.7168 0.979492 9.20117 0.944336 8.70898C0.90918 8.20508 0.891602 7.82422 0.891602 7.56641C0.879883 7.27344 0.874023 6.98633 0.874023 6.70508C0.874023 6.41211 0.874023 6.11328 0.874023 5.80859C0.874023 5.58594 0.874023 5.29883 0.874023 4.94727C0.885742 4.5957 0.90918 4.23242 0.944336 3.85742C0.979492 3.48242 1.03809 3.13086 1.12012 2.80273C1.20215 2.47461 1.3252 2.22266 1.48926 2.04688C1.58301 1.94141 1.78809 1.8418 2.10449 1.74805C2.43262 1.64258 2.81934 1.54883 3.26465 1.4668C3.70996 1.37305 4.19043 1.29102 4.70605 1.2207C5.22168 1.15039 5.72559 1.08594 6.21777 1.02734C6.70996 0.96875 7.16113 0.927734 7.57129 0.904297C7.99316 0.869141 8.32129 0.845703 8.55566 0.833984C8.89551 0.822266 9.23535 0.816406 9.5752 0.816406C9.91504 0.804688 10.2549 0.798828 10.5947 0.798828C11.04 0.798828 11.5088 0.810547 12.001 0.833984C12.5049 0.845703 12.9795 0.921875 13.4248 1.0625C13.8818 1.19141 14.2803 1.40234 14.6201 1.69531C14.9717 1.98828 15.2178 2.4043 15.3584 2.94336C15.3818 3.04883 15.3994 3.18945 15.4111 3.36523C15.4346 3.54102 15.4463 3.72852 15.4463 3.92773C15.458 4.12695 15.4639 4.32031 15.4639 4.50781C15.4639 4.69531 15.4639 4.8418 15.4639 4.94727ZM11.667 5.9668C11.667 5.9082 11.667 5.83203 11.667 5.73828C11.667 5.64453 11.6611 5.55078 11.6494 5.45703C11.6377 5.36328 11.6143 5.27539 11.5791 5.19336C11.5557 5.11133 11.5205 5.04688 11.4736 5C11.415 4.95312 11.333 4.91211 11.2275 4.87695C11.1221 4.8418 11.0049 4.81836 10.876 4.80664C10.7588 4.79492 10.6357 4.78906 10.5068 4.78906C10.3896 4.77734 10.2959 4.77148 10.2256 4.77148C10.0615 4.77148 9.80371 4.7832 9.45215 4.80664C9.1123 4.83008 8.72559 4.86523 8.29199 4.91211C7.87012 4.95898 7.4248 5.01758 6.95605 5.08789C6.4873 5.14648 6.05371 5.2168 5.65527 5.29883C5.25684 5.38086 4.91113 5.46875 4.61816 5.5625C4.33691 5.65625 4.16113 5.75586 4.09082 5.86133C4.04395 5.93164 4.01465 6.02539 4.00293 6.14258C4.00293 6.25977 4.00293 6.36523 4.00293 6.45898C4.00293 6.69336 4.02051 6.98633 4.05566 7.33789C4.09082 7.68945 4.1377 8.05273 4.19629 8.42773C4.25488 8.80273 4.31348 9.16602 4.37207 9.51758C4.44238 9.86914 4.50684 10.1562 4.56543 10.3789C4.84668 10.4844 5.09863 10.5723 5.32129 10.6426C5.54395 10.7012 5.76074 10.748 5.97168 10.7832C6.18262 10.8184 6.39941 10.8477 6.62207 10.8711C6.85645 10.8828 7.12598 10.8945 7.43066 10.9062L6.34082 9.14844C6.64551 8.99609 6.93262 8.84961 7.20215 8.70898C7.47168 8.56836 7.74121 8.43945 8.01074 8.32227C8.28027 8.20508 8.55566 8.09961 8.83691 8.00586C9.12988 7.91211 9.44629 7.82422 9.78613 7.74219L10.9639 10.1504C11.21 9.48242 11.3857 8.79688 11.4912 8.09375C11.6084 7.37891 11.667 6.66992 11.667 5.9668ZM29.4912 13.1035L26.5205 13.2266L26.3096 11.4512C26.0869 11.7559 25.8174 12.0137 25.501 12.2246C25.1963 12.4355 24.8623 12.6055 24.499 12.7344C24.1475 12.8633 23.7783 12.957 23.3916 13.0156C23.0166 13.0625 22.6475 13.0859 22.2842 13.0859C22.0029 13.0859 21.6514 13.0625 21.2295 13.0156C20.8193 12.9688 20.3975 12.9043 19.9639 12.8223C19.542 12.7285 19.1494 12.6113 18.7861 12.4707C18.4229 12.3301 18.1592 12.166 17.9951 11.9785C17.8662 11.8379 17.7666 11.6152 17.6963 11.3105C17.6377 10.9941 17.5967 10.6602 17.5732 10.3086C17.5498 9.95703 17.5381 9.61719 17.5381 9.28906C17.5381 8.96094 17.5381 8.69727 17.5381 8.49805C17.5381 7.61914 17.5732 6.75195 17.6436 5.89648C17.7139 5.04102 17.8135 4.19141 17.9424 3.34766C18.2705 3.3125 18.6221 3.29492 18.9971 3.29492C19.3018 3.29492 19.6064 3.31836 19.9111 3.36523C20.2158 3.40039 20.5205 3.44727 20.8252 3.50586C20.8252 3.56445 20.8311 3.73438 20.8428 4.01562C20.8545 4.29688 20.8662 4.63086 20.8779 5.01758C20.9014 5.4043 20.9248 5.82031 20.9482 6.26562C20.9717 6.69922 20.9951 7.10352 21.0186 7.47852C21.0537 7.85352 21.0889 8.17578 21.124 8.44531C21.1709 8.70312 21.2178 8.84375 21.2646 8.86719C21.4404 8.97266 21.6338 9.03125 21.8447 9.04297C22.0557 9.05469 22.2607 9.06055 22.46 9.06055C22.6006 9.06055 22.8174 9.05469 23.1104 9.04297C23.415 9.01953 23.7256 8.99023 24.042 8.95508C24.3584 8.9082 24.6514 8.85547 24.9209 8.79688C25.1904 8.72656 25.3721 8.64453 25.4658 8.55078C25.501 8.51562 25.5244 8.4043 25.5361 8.2168C25.5596 8.0293 25.5713 7.82422 25.5713 7.60156C25.583 7.37891 25.5889 7.17383 25.5889 6.98633C25.6006 6.78711 25.6064 6.66992 25.6064 6.63477C25.6064 6.10742 25.5947 5.58594 25.5713 5.07031C25.5479 4.55469 25.5244 4.0332 25.501 3.50586L28.9111 3.34766C28.9814 4.16797 29.0459 4.98828 29.1045 5.80859C29.1631 6.61719 29.2393 7.43164 29.333 8.25195C29.3682 8.52148 29.3857 8.79688 29.3857 9.07812C29.3975 9.35938 29.4092 9.64062 29.4209 9.92188C29.4443 10.4492 29.4561 10.9766 29.4561 11.5039C29.4678 12.0312 29.4795 12.5645 29.4912 13.1035ZM34.3779 2.24023C34.3779 2.47461 34.3252 2.69727 34.2197 2.9082C34.126 3.10742 33.9912 3.2832 33.8154 3.43555C33.6514 3.58789 33.4639 3.71094 33.2529 3.80469C33.042 3.88672 32.8311 3.92773 32.6201 3.92773C32.3857 3.92773 32.1631 3.875 31.9521 3.76953C31.7529 3.66406 31.5771 3.5293 31.4248 3.36523C31.2725 3.20117 31.1553 3.01367 31.0732 2.80273C30.9912 2.58008 30.9502 2.35742 30.9502 2.13477C30.9502 1.91211 30.9912 1.70703 31.0732 1.51953C31.167 1.32031 31.2842 1.15039 31.4248 1.00977C31.5771 0.869141 31.7471 0.757812 31.9346 0.675781C32.1338 0.59375 32.3447 0.552734 32.5674 0.552734C32.79 0.552734 33.0068 0.599609 33.2178 0.693359C33.4404 0.775391 33.6338 0.898437 33.7979 1.0625C33.9736 1.21484 34.1143 1.39648 34.2197 1.60742C34.3252 1.80664 34.3779 2.01758 34.3779 2.24023ZM35.0986 5.22852C35.04 5.84961 34.9932 6.46484 34.958 7.07422C34.9229 7.68359 34.8877 8.29297 34.8525 8.90234C34.8057 9.61719 34.7236 10.3262 34.6064 11.0293C34.501 11.7324 34.3779 12.4355 34.2373 13.1387L31.5479 13.4199C31.5479 13.0449 31.5479 12.6758 31.5479 12.3125C31.5596 11.9492 31.5654 11.5801 31.5654 11.2051C31.5654 10.2441 31.5479 9.2832 31.5127 8.32227C31.4775 7.36133 31.4424 6.40039 31.4072 5.43945C32.0283 5.41602 32.6377 5.38086 33.2354 5.33398C33.8447 5.28711 34.4658 5.25195 35.0986 5.22852ZM46.5947 11.7852C44.9658 11.7852 43.3486 11.791 41.7432 11.8027C40.1377 11.8145 38.5264 11.8379 36.9092 11.873L36.7861 9.14844C37.3721 8.78516 37.9521 8.42188 38.5264 8.05859C39.1123 7.69531 39.6924 7.32617 40.2666 6.95117C40.6768 6.68164 41.0752 6.40625 41.4619 6.125C41.8486 5.83203 42.2295 5.5332 42.6045 5.22852L36.0479 4.63086L36.0127 2.32812C37.1494 2.26953 38.2803 2.22266 39.4053 2.1875C40.542 2.15234 41.6787 2.13477 42.8154 2.13477C43.3779 2.13477 43.9287 2.14063 44.4678 2.15234C45.0186 2.15234 45.5752 2.16406 46.1377 2.1875C46.1143 2.53906 46.0908 2.89062 46.0674 3.24219C46.0557 3.59375 46.0498 3.94531 46.0498 4.29688C46.0498 4.64844 46.0557 5.00586 46.0674 5.36914C46.0908 5.7207 46.1143 6.07227 46.1377 6.42383L40.5654 9.46484C40.8467 9.47656 41.1221 9.48242 41.3916 9.48242C41.6729 9.48242 41.9541 9.48242 42.2354 9.48242C42.9619 9.48242 43.6826 9.47656 44.3975 9.46484C45.1123 9.44141 45.833 9.44141 46.5596 9.46484L46.5947 11.7852ZM59.7607 14.2812C58.3428 14.2578 56.8896 14.2227 55.4014 14.1758C53.9248 14.1289 52.4775 14.0234 51.0596 13.8594C50.8955 13.8359 50.708 13.8184 50.4971 13.8066C50.2979 13.7832 50.1162 13.7422 49.9521 13.6836C49.6123 13.5547 49.3428 13.4141 49.1436 13.2617C48.9561 13.0977 48.8096 12.916 48.7041 12.7168C48.5986 12.5059 48.5225 12.2773 48.4756 12.0312C48.4287 11.7734 48.3877 11.4863 48.3525 11.1699C48.2471 10.3496 48.165 9.5293 48.1064 8.70898C48.0479 7.87695 48.0186 7.04492 48.0186 6.21289C48.0186 6.06055 48.0186 5.87891 48.0186 5.66797C48.0303 5.44531 48.042 5.2168 48.0537 4.98242C48.0771 4.74805 48.1064 4.52539 48.1416 4.31445C48.1768 4.10352 48.2236 3.92773 48.2822 3.78711C48.5635 3.17773 48.9736 2.69141 49.5127 2.32812C50.0635 1.95312 50.667 1.66602 51.3232 1.4668C51.9795 1.25586 52.6533 1.12109 53.3447 1.0625C54.0479 0.992188 54.6924 0.957031 55.2783 0.957031C56.5322 0.957031 57.7861 1.08008 59.04 1.32617L59.1807 5.08789C57.9854 4.71289 56.749 4.52539 55.4717 4.52539C55.2373 4.52539 54.9268 4.53711 54.54 4.56055C54.1533 4.58398 53.7549 4.63086 53.3447 4.70117C52.9463 4.75977 52.5713 4.85352 52.2197 4.98242C51.8682 5.09961 51.6221 5.26367 51.4814 5.47461C51.4111 5.58008 51.3467 5.72656 51.2881 5.91406C51.2412 6.10156 51.2002 6.30078 51.165 6.51172C51.1416 6.71094 51.124 6.91016 51.1123 7.10938C51.1006 7.30859 51.0947 7.47266 51.0947 7.60156C51.0947 7.87109 51.1123 8.19336 51.1475 8.56836C51.1943 8.93164 51.2471 9.30664 51.3057 9.69336C51.3643 10.0801 51.4346 10.4492 51.5166 10.8008C51.5986 11.1523 51.6865 11.4395 51.7803 11.6621H54.8916L54.7334 8.26953C55.542 8.32812 56.3506 8.35742 57.1592 8.35742C57.9795 8.3457 58.7939 8.33984 59.6025 8.33984C59.6846 9.33594 59.7314 10.3262 59.7432 11.3105C59.7549 12.2949 59.7607 13.2852 59.7607 14.2812ZM73.7881 7.47852C72.2529 7.56055 70.7236 7.63086 69.2002 7.68945C67.6768 7.73633 66.1475 7.78906 64.6123 7.84766C64.6006 7.89453 64.5947 7.94141 64.5947 7.98828C64.5947 8.03516 64.5947 8.08203 64.5947 8.12891C64.5947 8.52734 64.6826 8.83203 64.8584 9.04297C65.0459 9.25391 65.2744 9.40625 65.5439 9.5C65.8135 9.58203 66.1123 9.62891 66.4404 9.64062C66.7686 9.65234 67.0732 9.6582 67.3545 9.6582C68.1396 9.6582 68.9248 9.63477 69.71 9.58789C70.4951 9.5293 71.2861 9.4707 72.083 9.41211L72.2236 12.207C71.4502 12.2422 70.6768 12.2715 69.9033 12.2949C69.1416 12.3184 68.374 12.3301 67.6006 12.3301C67.4365 12.3301 67.1318 12.3301 66.6865 12.3301C66.2529 12.3184 65.7842 12.3008 65.2803 12.2773C64.7881 12.2422 64.3252 12.2012 63.8916 12.1543C63.458 12.1074 63.1709 12.043 63.0303 11.9609C62.667 11.75 62.3799 11.4805 62.1689 11.1523C61.9697 10.8242 61.8115 10.4668 61.6943 10.0801C61.5889 9.69336 61.5127 9.30078 61.4658 8.90234C61.4307 8.49219 61.4072 8.09961 61.3955 7.72461C61.3838 7.66602 61.3779 7.60742 61.3779 7.54883C61.3896 7.47852 61.3955 7.41406 61.3955 7.35547C61.3955 6.73438 61.46 6.16016 61.5889 5.63281C61.7295 5.09375 61.9814 4.57227 62.3447 4.06836C62.5908 3.7168 62.9541 3.42383 63.4346 3.18945C63.915 2.95508 64.4365 2.77344 64.999 2.64453C65.5615 2.50391 66.124 2.41016 66.6865 2.36328C67.249 2.30469 67.7354 2.27539 68.1455 2.27539C68.5088 2.27539 68.9541 2.31055 69.4814 2.38086C70.0088 2.43945 70.5303 2.54492 71.0459 2.69727C71.5732 2.84961 72.0479 3.04883 72.4697 3.29492C72.8916 3.5293 73.1787 3.82227 73.3311 4.17383C73.3545 4.24414 73.3779 4.36719 73.4014 4.54297C73.4365 4.70703 73.4717 4.90039 73.5068 5.12305C73.542 5.33398 73.5713 5.5625 73.5947 5.80859C73.6299 6.05469 73.6592 6.28906 73.6826 6.51172C73.7061 6.73438 73.7236 6.93359 73.7354 7.10938C73.7588 7.28516 73.7764 7.4082 73.7881 7.47852ZM71.3975 6.19531C71.3271 5.67969 71.1924 5.27539 70.9932 4.98242C70.8057 4.67773 70.5654 4.45508 70.2725 4.31445C69.9912 4.16211 69.6631 4.06836 69.2881 4.0332C68.9248 3.98633 68.5322 3.96289 68.1104 3.96289C67.9697 3.96289 67.7939 3.96875 67.583 3.98047C67.3721 3.98047 67.1611 3.99805 66.9502 4.0332C66.7393 4.05664 66.54 4.09766 66.3525 4.15625C66.165 4.21484 66.0186 4.29688 65.9131 4.40234C65.8311 4.47266 65.7607 4.57227 65.7021 4.70117C65.6553 4.81836 65.6143 4.94727 65.5791 5.08789C65.5439 5.22852 65.5146 5.36914 65.4912 5.50977C65.4795 5.63867 65.4736 5.75 65.4736 5.84375C65.4736 6.03125 65.4912 6.21289 65.5264 6.38867L71.3975 6.19531ZM85.4072 8.7793C85.4072 9.0957 85.4072 9.41797 85.4072 9.74609C85.4072 10.0625 85.3955 10.3789 85.3721 10.6953L81.4521 10.9414C81.499 10.332 81.5342 9.72852 81.5576 9.13086C81.5928 8.5332 81.6104 7.92383 81.6104 7.30273C81.6104 7.24414 81.6104 7.14453 81.6104 7.00391C81.6104 6.86328 81.6045 6.7168 81.5928 6.56445C81.5811 6.40039 81.5693 6.24805 81.5576 6.10742C81.5459 5.9668 81.5342 5.86719 81.5225 5.80859C81.4639 5.64453 81.3994 5.50391 81.3291 5.38672C81.2705 5.26953 81.1943 5.17578 81.1006 5.10547C81.0186 5.03516 80.9131 4.98828 80.7842 4.96484C80.6553 4.92969 80.4971 4.91211 80.3096 4.91211C80.1689 4.91211 79.9873 4.92383 79.7646 4.94727C79.5537 4.9707 79.3369 5.00586 79.1143 5.05273C78.8916 5.09961 78.6807 5.1582 78.4814 5.22852C78.2822 5.29883 78.1416 5.38086 78.0596 5.47461L78.0244 10.6602C78.001 10.6133 77.9307 10.5898 77.8135 10.5898C77.708 10.5898 77.6318 10.5898 77.585 10.5898C77.2334 10.5898 76.8701 10.6074 76.4951 10.6426C76.1201 10.666 75.7568 10.7012 75.4053 10.748C75.2529 9.36523 75.1182 7.98828 75.001 6.61719C74.8838 5.24609 74.749 3.86914 74.5967 2.48633C74.8311 2.47461 75.0654 2.46875 75.2998 2.46875C75.5342 2.45703 75.7686 2.45117 76.0029 2.45117C76.3076 2.45117 76.6123 2.46289 76.917 2.48633C77.2334 2.49805 77.5439 2.50977 77.8486 2.52148L77.9717 3.875C78.2998 3.33594 78.7451 2.88477 79.3076 2.52148C79.8701 2.1582 80.4736 1.97656 81.1182 1.97656C81.4463 1.97656 81.7861 1.99414 82.1377 2.0293C82.4893 2.06445 82.8232 2.13477 83.1396 2.24023C83.4678 2.3457 83.7725 2.49219 84.0537 2.67969C84.3467 2.86719 84.5928 3.10742 84.792 3.40039C84.8857 3.54102 84.9619 3.75195 85.0205 4.0332C85.0908 4.30273 85.1494 4.61328 85.1963 4.96484C85.2432 5.30469 85.2783 5.66797 85.3018 6.05469C85.3369 6.44141 85.3604 6.81055 85.3721 7.16211C85.3838 7.51367 85.3896 7.83594 85.3896 8.12891C85.4014 8.41016 85.4072 8.62695 85.4072 8.7793Z" fill="#2563EB"/>
</svg>
