<svg width="84" height="27" viewBox="0 0 84 27" fill="none" xmlns="http://www.w3.org/2000/svg">
<g filter="url(#filter0_d_1142_1855)">
<path d="M4.7332 10.92C4.7332 9.88 4.8932 8.96 5.2132 8.16C5.54654 7.36 5.9932 6.69333 6.5532 6.16C7.12654 5.61333 7.7932 5.2 8.5532 4.92C9.32654 4.64 10.1599 4.5 11.0532 4.5C11.9465 4.5 12.7732 4.64 13.5332 4.92C14.3065 5.2 14.9799 5.61333 15.5532 6.16C16.1265 6.69333 16.5732 7.36 16.8932 8.16C17.2265 8.96 17.3932 9.88 17.3932 10.92C17.3932 12.2267 17.1532 13.34 16.6732 14.26C16.1932 15.1667 15.5399 15.88 14.7132 16.4C14.9132 16.4933 15.1465 16.5933 15.4132 16.7C15.6932 16.8067 15.9799 16.9133 16.2732 17.02C16.5799 17.1267 16.8932 17.2267 17.2132 17.32C17.5332 17.4267 17.8332 17.52 18.1132 17.6C18.1265 17.68 18.1332 17.7467 18.1332 17.8C18.1332 17.8667 18.1332 17.9267 18.1332 17.98C18.1332 18.74 17.9332 19.2933 17.5332 19.64C17.1465 19.9867 16.6332 20.16 15.9932 20.16C15.3799 20.16 14.7465 19.9867 14.0932 19.64C13.4399 19.3067 12.7732 18.82 12.0932 18.18L11.2132 17.36H11.0532C10.1465 17.36 9.30654 17.22 8.5332 16.94C7.75987 16.6467 7.0932 16.2267 6.5332 15.68C5.9732 15.1333 5.5332 14.46 5.2132 13.66C4.8932 12.86 4.7332 11.9467 4.7332 10.92ZM8.3332 10.92C8.3332 12.1333 8.57987 13.04 9.0732 13.64C9.56654 14.24 10.2265 14.54 11.0532 14.54C11.8932 14.54 12.5599 14.24 13.0532 13.64C13.5465 13.04 13.7932 12.1333 13.7932 10.92C13.7932 9.72 13.5465 8.82 13.0532 8.22C12.5732 7.62 11.9132 7.32 11.0732 7.32C10.2465 7.32 9.57987 7.62 9.0732 8.22C8.57987 8.80667 8.3332 9.70667 8.3332 10.92ZM19.1748 7.42C19.3081 7.38 19.5148 7.34 19.7948 7.3C20.0881 7.26 20.3881 7.24 20.6948 7.24C20.9881 7.24 21.2481 7.26 21.4748 7.3C21.7148 7.34 21.9148 7.42 22.0748 7.54C22.2348 7.66 22.3548 7.82667 22.4348 8.04C22.5281 8.24 22.5748 8.50667 22.5748 8.84V13.14C22.5748 13.6867 22.7081 14.08 22.9748 14.32C23.2414 14.5467 23.6281 14.66 24.1348 14.66C24.4414 14.66 24.6881 14.6333 24.8748 14.58C25.0748 14.5267 25.2281 14.4733 25.3348 14.42V7.42C25.4681 7.38 25.6748 7.34 25.9548 7.3C26.2481 7.26 26.5481 7.24 26.8548 7.24C27.1481 7.24 27.4081 7.26 27.6348 7.3C27.8748 7.34 28.0748 7.42 28.2348 7.54C28.3948 7.66 28.5148 7.82667 28.5948 8.04C28.6881 8.24 28.7348 8.50667 28.7348 8.84V14.92C28.7348 15.5867 28.4548 16.0867 27.8948 16.42C27.4281 16.7133 26.8681 16.9333 26.2148 17.08C25.5748 17.24 24.8748 17.32 24.1148 17.32C23.3948 17.32 22.7281 17.24 22.1148 17.08C21.5148 16.92 20.9948 16.6733 20.5548 16.34C20.1148 16.0067 19.7748 15.58 19.5348 15.06C19.2948 14.5267 19.1748 13.8867 19.1748 13.14V7.42ZM30.7354 4.58C30.7354 4.07333 30.9021 3.64667 31.2354 3.3C31.5821 2.95333 32.0354 2.78 32.5954 2.78C33.1554 2.78 33.6021 2.95333 33.9354 3.3C34.2821 3.64667 34.4554 4.07333 34.4554 4.58C34.4554 5.08667 34.2821 5.51333 33.9354 5.86C33.6021 6.20667 33.1554 6.38 32.5954 6.38C32.0354 6.38 31.5821 6.20667 31.2354 5.86C30.9021 5.51333 30.7354 5.08667 30.7354 4.58ZM34.2954 16.98C34.1487 17.0067 33.9287 17.04 33.6354 17.08C33.3554 17.1333 33.0687 17.16 32.7754 17.16C32.4821 17.16 32.2154 17.14 31.9754 17.1C31.7487 17.06 31.5554 16.98 31.3954 16.86C31.2354 16.74 31.1087 16.58 31.0154 16.38C30.9354 16.1667 30.8954 15.8933 30.8954 15.56V7.42C31.0421 7.39333 31.2554 7.36 31.5354 7.32C31.8287 7.26667 32.1221 7.24 32.4154 7.24C32.7087 7.24 32.9687 7.26 33.1954 7.3C33.4354 7.34 33.6354 7.42 33.7954 7.54C33.9554 7.66 34.0754 7.82667 34.1554 8.04C34.2487 8.24 34.2954 8.50667 34.2954 8.84V16.98ZM36.7999 17C36.5866 16.8133 36.4133 16.5933 36.2799 16.34C36.1599 16.0867 36.0999 15.8 36.0999 15.48C36.0999 15.2133 36.1599 14.9533 36.2799 14.7C36.4133 14.4333 36.5733 14.1867 36.7599 13.96L40.1999 9.92H36.5199C36.4399 9.77333 36.3599 9.58667 36.2799 9.36C36.2133 9.13333 36.1799 8.88667 36.1799 8.62C36.1799 8.15333 36.2799 7.82 36.4799 7.62C36.6933 7.40667 36.9733 7.3 37.3199 7.3H43.6199C43.8333 7.48667 43.9999 7.70667 44.1199 7.96C44.2533 8.21333 44.3199 8.5 44.3199 8.82C44.3199 9.08667 44.2533 9.35333 44.1199 9.62C43.9999 9.87333 43.8466 10.1133 43.6599 10.34L40.2999 14.38H44.2199C44.2999 14.5267 44.3733 14.7133 44.4399 14.94C44.5199 15.1667 44.5599 15.4133 44.5599 15.68C44.5599 16.1467 44.4533 16.4867 44.2399 16.7C44.0399 16.9 43.7666 17 43.4199 17H36.7999ZM57.3288 15.02C57.3288 15.4333 57.2555 15.74 57.1088 15.94C56.9622 16.14 56.7288 16.3333 56.4088 16.52C56.2222 16.6267 55.9888 16.7333 55.7088 16.84C55.4288 16.9333 55.1222 17.0133 54.7888 17.08C54.4555 17.16 54.1022 17.22 53.7288 17.26C53.3688 17.3 53.0088 17.32 52.6488 17.32C51.6888 17.32 50.7888 17.1933 49.9488 16.94C49.1088 16.6733 48.3755 16.28 47.7488 15.76C47.1355 15.2267 46.6488 14.5667 46.2888 13.78C45.9288 12.9933 45.7488 12.08 45.7488 11.04C45.7488 9.94667 45.9422 8.99333 46.3288 8.18C46.7288 7.36667 47.2488 6.69333 47.8888 6.16C48.5422 5.61333 49.2822 5.20667 50.1088 4.94C50.9488 4.67333 51.8088 4.54 52.6888 4.54C53.9555 4.54 54.9555 4.74667 55.6888 5.16C56.4355 5.56 56.8088 6.08667 56.8088 6.74C56.8088 7.08667 56.7222 7.38667 56.5488 7.64C56.3755 7.89333 56.1755 8.09333 55.9488 8.24C55.6155 8.04 55.1955 7.84667 54.6888 7.66C54.1955 7.46 53.6355 7.36 53.0088 7.36C51.8888 7.36 50.9955 7.68 50.3288 8.32C49.6755 8.96 49.3488 9.84667 49.3488 10.98C49.3488 11.5933 49.4355 12.1267 49.6088 12.58C49.7955 13.02 50.0422 13.3867 50.3488 13.68C50.6555 13.96 51.0088 14.1733 51.4088 14.32C51.8088 14.4533 52.2355 14.52 52.6888 14.52C52.9822 14.52 53.2422 14.4933 53.4688 14.44C53.6955 14.3867 53.8688 14.3267 53.9888 14.26V12.38H51.8488C51.7688 12.2333 51.6888 12.04 51.6088 11.8C51.5422 11.56 51.5088 11.3067 51.5088 11.04C51.5088 10.56 51.6155 10.2133 51.8288 10C52.0555 9.78667 52.3422 9.68 52.6888 9.68H56.0688C56.4688 9.68 56.7755 9.79333 56.9888 10.02C57.2155 10.2333 57.3288 10.54 57.3288 10.94V15.02ZM64.5101 17.32C63.7234 17.32 62.9901 17.2133 62.3101 17C61.6434 16.7733 61.0567 16.44 60.5501 16C60.0567 15.56 59.6634 15.0067 59.3701 14.34C59.0901 13.6733 58.9501 12.8933 58.9501 12C58.9501 11.12 59.0901 10.3667 59.3701 9.74C59.6634 9.1 60.0434 8.58 60.5101 8.18C60.9767 7.76667 61.5101 7.46667 62.1101 7.28C62.7101 7.08 63.3234 6.98 63.9501 6.98C64.6567 6.98 65.2967 7.08667 65.8701 7.3C66.4567 7.51333 66.9567 7.80667 67.3701 8.18C67.7967 8.55333 68.1234 9 68.3501 9.52C68.5901 10.04 68.7101 10.6067 68.7101 11.22C68.7101 11.6733 68.5834 12.02 68.3301 12.26C68.0767 12.5 67.7234 12.6533 67.2701 12.72L62.3301 13.46C62.4767 13.9 62.7767 14.2333 63.2301 14.46C63.6834 14.6733 64.2034 14.78 64.7901 14.78C65.3367 14.78 65.8501 14.7133 66.3301 14.58C66.8234 14.4333 67.2234 14.2667 67.5301 14.08C67.7434 14.2133 67.9234 14.4 68.0701 14.64C68.2167 14.88 68.2901 15.1333 68.2901 15.4C68.2901 16 68.0101 16.4467 67.4501 16.74C67.0234 16.9667 66.5434 17.12 66.0101 17.2C65.4767 17.28 64.9767 17.32 64.5101 17.32ZM63.9501 9.46C63.6301 9.46 63.3501 9.51333 63.1101 9.62C62.8834 9.72667 62.6967 9.86667 62.5501 10.04C62.4034 10.2 62.2901 10.3867 62.2101 10.6C62.1434 10.8 62.1034 11.0067 62.0901 11.22L65.5101 10.66C65.4701 10.3933 65.3234 10.1267 65.0701 9.86C64.8167 9.59333 64.4434 9.46 63.9501 9.46ZM76.5066 10.84C76.5066 10.4267 76.3866 10.1267 76.1466 9.94C75.92 9.74 75.6066 9.64 75.2066 9.64C74.94 9.64 74.6733 9.67333 74.4066 9.74C74.1533 9.80667 73.9333 9.90667 73.7466 10.04V16.98C73.6133 17.02 73.4 17.06 73.1066 17.1C72.8266 17.14 72.5333 17.16 72.2266 17.16C71.9333 17.16 71.6666 17.14 71.4266 17.1C71.2 17.06 71.0066 16.98 70.8466 16.86C70.6866 16.74 70.56 16.58 70.4666 16.38C70.3866 16.1667 70.3466 15.8933 70.3466 15.56V9.56C70.3466 9.2 70.42 8.90667 70.5666 8.68C70.7266 8.45333 70.94 8.24667 71.2066 8.06C71.66 7.74 72.2266 7.48 72.9066 7.28C73.6 7.08 74.3666 6.98 75.2066 6.98C76.7133 6.98 77.8733 7.31333 78.6866 7.98C79.5 8.63333 79.9066 9.54667 79.9066 10.72V16.98C79.7733 17.02 79.56 17.06 79.2666 17.1C78.9866 17.14 78.6933 17.16 78.3866 17.16C78.0933 17.16 77.8266 17.14 77.5866 17.1C77.36 17.06 77.1666 16.98 77.0066 16.86C76.8466 16.74 76.72 16.58 76.6266 16.38C76.5466 16.1667 76.5066 15.8933 76.5066 15.56V10.84Z" fill="white"/>
</g>
<defs>
<filter id="filter0_d_1142_1855" x="0.733215" y="0.779785" width="83.1734" height="25.3804" filterUnits="userSpaceOnUse" color-interpolation-filters="sRGB">
<feFlood flood-opacity="0" result="BackgroundImageFix"/>
<feColorMatrix in="SourceAlpha" type="matrix" values="0 0 0 0 0 0 0 0 0 0 0 0 0 0 0 0 0 0 127 0" result="hardAlpha"/>
<feOffset dy="2"/>
<feGaussianBlur stdDeviation="2"/>
<feComposite in2="hardAlpha" operator="out"/>
<feColorMatrix type="matrix" values="0 0 0 0 0 0 0 0 0 0 0 0 0 0 0 0 0 0 0.25 0"/>
<feBlend mode="normal" in2="BackgroundImageFix" result="effect1_dropShadow_1142_1855"/>
<feBlend mode="normal" in="SourceGraphic" in2="effect1_dropShadow_1142_1855" result="shape"/>
</filter>
</defs>
</svg>
