<svg width="151" height="29" viewBox="0 0 151 29" fill="none" xmlns="http://www.w3.org/2000/svg">
<path d="M26.5469 7.90625C26.5469 8.26042 26.5365 8.79167 26.5156 9.5C26.5156 10.2083 26.4948 11.0104 26.4531 11.9062C26.4115 12.7812 26.349 13.6979 26.2656 14.6562C26.2031 15.5938 26.1094 16.4792 25.9844 17.3125C25.8594 18.1458 25.7031 18.875 25.5156 19.5C25.349 20.125 25.1406 20.5417 24.8906 20.75C24.7031 20.9167 24.4531 21.0833 24.1406 21.25C23.849 21.4167 23.5365 21.5729 23.2031 21.7188C22.8906 21.8646 22.5781 22 22.2656 22.125C21.9531 22.2292 21.6719 22.3125 21.4219 22.375C21.8177 23.3125 22.2031 24.2292 22.5781 25.125C22.9531 26.0417 23.3281 26.9688 23.7031 27.9062L19.0781 29C18.474 28.125 17.901 27.25 17.3594 26.375C16.8385 25.5 16.276 24.6354 15.6719 23.7812C15.5052 23.8021 15.3385 23.8125 15.1719 23.8125C15.0052 23.8125 14.8385 23.8125 14.6719 23.8125C14.3177 23.8125 13.7865 23.7917 13.0781 23.75C12.3906 23.7083 11.6094 23.6458 10.7344 23.5625C9.88021 23.4792 8.98438 23.375 8.04688 23.25C7.10938 23.125 6.23438 22.9896 5.42188 22.8438C4.63021 22.6979 3.94271 22.5312 3.35938 22.3438C2.77604 22.1562 2.40104 21.9583 2.23438 21.75C1.94271 21.3958 1.69271 20.8125 1.48438 20C1.29688 19.1667 1.14062 18.2812 1.01562 17.3438C0.890625 16.3854 0.796875 15.4688 0.734375 14.5938C0.671875 13.6979 0.640625 13.0208 0.640625 12.5625C0.619792 12.0417 0.609375 11.5312 0.609375 11.0312C0.609375 10.5104 0.609375 9.97917 0.609375 9.4375C0.609375 9.04167 0.609375 8.53125 0.609375 7.90625C0.630208 7.28125 0.671875 6.63542 0.734375 5.96875C0.796875 5.30208 0.901042 4.67708 1.04688 4.09375C1.19271 3.51042 1.41146 3.0625 1.70312 2.75C1.86979 2.5625 2.23438 2.38542 2.79688 2.21875C3.38021 2.03125 4.06771 1.86458 4.85938 1.71875C5.65104 1.55208 6.50521 1.40625 7.42188 1.28125C8.33854 1.15625 9.23438 1.04167 10.1094 0.9375C10.9844 0.833333 11.7865 0.760417 12.5156 0.71875C13.2656 0.65625 13.849 0.614583 14.2656 0.59375C14.8698 0.572917 15.474 0.5625 16.0781 0.5625C16.6823 0.541667 17.2865 0.53125 17.8906 0.53125C18.6823 0.53125 19.5156 0.552083 20.3906 0.59375C21.2865 0.614583 22.1302 0.75 22.9219 1C23.7344 1.22917 24.4427 1.60417 25.0469 2.125C25.6719 2.64583 26.1094 3.38542 26.3594 4.34375C26.401 4.53125 26.4323 4.78125 26.4531 5.09375C26.4948 5.40625 26.5156 5.73958 26.5156 6.09375C26.5365 6.44792 26.5469 6.79167 26.5469 7.125C26.5469 7.45833 26.5469 7.71875 26.5469 7.90625ZM19.7969 9.71875C19.7969 9.61458 19.7969 9.47917 19.7969 9.3125C19.7969 9.14583 19.7865 8.97917 19.7656 8.8125C19.7448 8.64583 19.7031 8.48958 19.6406 8.34375C19.599 8.19792 19.5365 8.08333 19.4531 8C19.349 7.91667 19.2031 7.84375 19.0156 7.78125C18.8281 7.71875 18.6198 7.67708 18.3906 7.65625C18.1823 7.63542 17.9635 7.625 17.7344 7.625C17.526 7.60417 17.3594 7.59375 17.2344 7.59375C16.9427 7.59375 16.4844 7.61458 15.8594 7.65625C15.2552 7.69792 14.5677 7.76042 13.7969 7.84375C13.0469 7.92708 12.2552 8.03125 11.4219 8.15625C10.5885 8.26042 9.81771 8.38542 9.10938 8.53125C8.40104 8.67708 7.78646 8.83333 7.26562 9C6.76562 9.16667 6.45312 9.34375 6.32812 9.53125C6.24479 9.65625 6.19271 9.82292 6.17188 10.0312C6.17188 10.2396 6.17188 10.4271 6.17188 10.5938C6.17188 11.0104 6.20312 11.5312 6.26562 12.1562C6.32812 12.7812 6.41146 13.4271 6.51562 14.0938C6.61979 14.7604 6.72396 15.4062 6.82812 16.0312C6.95312 16.6562 7.06771 17.1667 7.17188 17.5625C7.67188 17.75 8.11979 17.9062 8.51562 18.0312C8.91146 18.1354 9.29688 18.2188 9.67188 18.2812C10.0469 18.3438 10.4323 18.3958 10.8281 18.4375C11.2448 18.4583 11.724 18.4792 12.2656 18.5L10.3281 15.375C10.8698 15.1042 11.3802 14.8438 11.8594 14.5938C12.3385 14.3438 12.8177 14.1146 13.2969 13.9062C13.776 13.6979 14.2656 13.5104 14.7656 13.3438C15.2865 13.1771 15.849 13.0208 16.4531 12.875L18.5469 17.1562C18.9844 15.9688 19.2969 14.75 19.4844 13.5C19.6927 12.2292 19.7969 10.9688 19.7969 9.71875ZM51.4844 22.4062L46.2031 22.625L45.8281 19.4688C45.4323 20.0104 44.9531 20.4688 44.3906 20.8438C43.849 21.2188 43.2552 21.5208 42.6094 21.75C41.9844 21.9792 41.3281 22.1458 40.6406 22.25C39.974 22.3333 39.3177 22.375 38.6719 22.375C38.1719 22.375 37.5469 22.3333 36.7969 22.25C36.0677 22.1667 35.3177 22.0521 34.5469 21.9062C33.7969 21.7396 33.099 21.5312 32.4531 21.2812C31.8073 21.0312 31.3385 20.7396 31.0469 20.4062C30.8177 20.1562 30.6406 19.7604 30.5156 19.2188C30.4115 18.6562 30.3385 18.0625 30.2969 17.4375C30.2552 16.8125 30.2344 16.2083 30.2344 15.625C30.2344 15.0417 30.2344 14.5729 30.2344 14.2188C30.2344 12.6562 30.2969 11.1146 30.4219 9.59375C30.5469 8.07292 30.724 6.5625 30.9531 5.0625C31.5365 5 32.1615 4.96875 32.8281 4.96875C33.3698 4.96875 33.9115 5.01042 34.4531 5.09375C34.9948 5.15625 35.5365 5.23958 36.0781 5.34375C36.0781 5.44792 36.0885 5.75 36.1094 6.25C36.1302 6.75 36.151 7.34375 36.1719 8.03125C36.2135 8.71875 36.2552 9.45833 36.2969 10.25C36.3385 11.0208 36.3802 11.7396 36.4219 12.4062C36.4844 13.0729 36.5469 13.6458 36.6094 14.125C36.6927 14.5833 36.776 14.8333 36.8594 14.875C37.1719 15.0625 37.5156 15.1667 37.8906 15.1875C38.2656 15.2083 38.6302 15.2188 38.9844 15.2188C39.2344 15.2188 39.6198 15.2083 40.1406 15.1875C40.6823 15.1458 41.2344 15.0938 41.7969 15.0312C42.3594 14.9479 42.8802 14.8542 43.3594 14.75C43.8385 14.625 44.1615 14.4792 44.3281 14.3125C44.3906 14.25 44.4323 14.0521 44.4531 13.7188C44.4948 13.3854 44.5156 13.0208 44.5156 12.625C44.5365 12.2292 44.5469 11.8646 44.5469 11.5312C44.5677 11.1771 44.5781 10.9688 44.5781 10.9062C44.5781 9.96875 44.5573 9.04167 44.5156 8.125C44.474 7.20833 44.4323 6.28125 44.3906 5.34375L50.4531 5.0625C50.5781 6.52083 50.6927 7.97917 50.7969 9.4375C50.901 10.875 51.0365 12.3229 51.2031 13.7812C51.2656 14.2604 51.2969 14.75 51.2969 15.25C51.3177 15.75 51.3385 16.25 51.3594 16.75C51.401 17.6875 51.4219 18.625 51.4219 19.5625C51.4427 20.5 51.4635 21.4479 51.4844 22.4062ZM60.1719 3.09375C60.1719 3.51042 60.0781 3.90625 59.8906 4.28125C59.724 4.63542 59.4844 4.94792 59.1719 5.21875C58.8802 5.48958 58.5469 5.70833 58.1719 5.875C57.7969 6.02083 57.4219 6.09375 57.0469 6.09375C56.6302 6.09375 56.2344 6 55.8594 5.8125C55.5052 5.625 55.1927 5.38542 54.9219 5.09375C54.651 4.80208 54.4427 4.46875 54.2969 4.09375C54.151 3.69792 54.0781 3.30208 54.0781 2.90625C54.0781 2.51042 54.151 2.14583 54.2969 1.8125C54.4635 1.45833 54.6719 1.15625 54.9219 0.90625C55.1927 0.65625 55.4948 0.458333 55.8281 0.3125C56.1823 0.166667 56.5573 0.09375 56.9531 0.09375C57.349 0.09375 57.7344 0.177083 58.1094 0.34375C58.5052 0.489583 58.849 0.708333 59.1406 1C59.4531 1.27083 59.7031 1.59375 59.8906 1.96875C60.0781 2.32292 60.1719 2.69792 60.1719 3.09375ZM61.4531 8.40625C61.349 9.51042 61.2656 10.6042 61.2031 11.6875C61.1406 12.7708 61.0781 13.8542 61.0156 14.9375C60.9323 16.2083 60.7865 17.4688 60.5781 18.7188C60.3906 19.9688 60.1719 21.2188 59.9219 22.4688L55.1406 22.9688C55.1406 22.3021 55.1406 21.6458 55.1406 21C55.1615 20.3542 55.1719 19.6979 55.1719 19.0312C55.1719 17.3229 55.1406 15.6146 55.0781 13.9062C55.0156 12.1979 54.9531 10.4896 54.8906 8.78125C55.9948 8.73958 57.0781 8.67708 58.1406 8.59375C59.224 8.51042 60.3281 8.44792 61.4531 8.40625ZM81.8906 20.0625C78.9948 20.0625 76.1198 20.0729 73.2656 20.0938C70.4115 20.1146 67.5469 20.1562 64.6719 20.2188L64.4531 15.375C65.4948 14.7292 66.526 14.0833 67.5469 13.4375C68.5885 12.7917 69.6198 12.1354 70.6406 11.4688C71.3698 10.9896 72.0781 10.5 72.7656 10C73.4531 9.47917 74.1302 8.94792 74.7969 8.40625L63.1406 7.34375L63.0781 3.25C65.099 3.14583 67.1094 3.0625 69.1094 3C71.1302 2.9375 73.151 2.90625 75.1719 2.90625C76.1719 2.90625 77.151 2.91667 78.1094 2.9375C79.0885 2.9375 80.0781 2.95833 81.0781 3C81.0365 3.625 80.9948 4.25 80.9531 4.875C80.9323 5.5 80.9219 6.125 80.9219 6.75C80.9219 7.375 80.9323 8.01042 80.9531 8.65625C80.9948 9.28125 81.0365 9.90625 81.0781 10.5312L71.1719 15.9375C71.6719 15.9583 72.1615 15.9688 72.6406 15.9688C73.1406 15.9688 73.6406 15.9688 74.1406 15.9688C75.4323 15.9688 76.7135 15.9583 77.9844 15.9375C79.2552 15.8958 80.5365 15.8958 81.8281 15.9375L81.8906 20.0625ZM105.297 24.5C102.776 24.4583 100.193 24.3958 97.5469 24.3125C94.9219 24.2292 92.349 24.0417 89.8281 23.75C89.5365 23.7083 89.2031 23.6771 88.8281 23.6562C88.474 23.6146 88.151 23.5417 87.8594 23.4375C87.2552 23.2083 86.776 22.9583 86.4219 22.6875C86.0885 22.3958 85.8281 22.0729 85.6406 21.7188C85.4531 21.3438 85.3177 20.9375 85.2344 20.5C85.151 20.0417 85.0781 19.5312 85.0156 18.9688C84.8281 17.5104 84.6823 16.0521 84.5781 14.5938C84.474 13.1146 84.4219 11.6354 84.4219 10.1562C84.4219 9.88542 84.4219 9.5625 84.4219 9.1875C84.4427 8.79167 84.4635 8.38542 84.4844 7.96875C84.526 7.55208 84.5781 7.15625 84.6406 6.78125C84.7031 6.40625 84.7865 6.09375 84.8906 5.84375C85.3906 4.76042 86.1198 3.89583 87.0781 3.25C88.0573 2.58333 89.1302 2.07292 90.2969 1.71875C91.4635 1.34375 92.6615 1.10417 93.8906 1C95.1406 0.875 96.2865 0.8125 97.3281 0.8125C99.5573 0.8125 101.786 1.03125 104.016 1.46875L104.266 8.15625C102.141 7.48958 99.9427 7.15625 97.6719 7.15625C97.2552 7.15625 96.7031 7.17708 96.0156 7.21875C95.3281 7.26042 94.6198 7.34375 93.8906 7.46875C93.1823 7.57292 92.5156 7.73958 91.8906 7.96875C91.2656 8.17708 90.8281 8.46875 90.5781 8.84375C90.4531 9.03125 90.3385 9.29167 90.2344 9.625C90.151 9.95833 90.0781 10.3125 90.0156 10.6875C89.974 11.0417 89.9427 11.3958 89.9219 11.75C89.901 12.1042 89.8906 12.3958 89.8906 12.625C89.8906 13.1042 89.9219 13.6771 89.9844 14.3438C90.0677 14.9896 90.1615 15.6562 90.2656 16.3438C90.3698 17.0312 90.4948 17.6875 90.6406 18.3125C90.7865 18.9375 90.9427 19.4479 91.1094 19.8438H96.6406L96.3594 13.8125C97.7969 13.9167 99.2344 13.9688 100.672 13.9688C102.13 13.9479 103.578 13.9375 105.016 13.9375C105.161 15.7083 105.245 17.4688 105.266 19.2188C105.286 20.9688 105.297 22.7292 105.297 24.5ZM130.234 12.4062C127.505 12.5521 124.786 12.6771 122.078 12.7812C119.37 12.8646 116.651 12.9583 113.922 13.0625C113.901 13.1458 113.891 13.2292 113.891 13.3125C113.891 13.3958 113.891 13.4792 113.891 13.5625C113.891 14.2708 114.047 14.8125 114.359 15.1875C114.693 15.5625 115.099 15.8333 115.578 16C116.057 16.1458 116.589 16.2292 117.172 16.25C117.755 16.2708 118.297 16.2812 118.797 16.2812C120.193 16.2812 121.589 16.2396 122.984 16.1562C124.38 16.0521 125.786 15.9479 127.203 15.8438L127.453 20.8125C126.078 20.875 124.703 20.9271 123.328 20.9688C121.974 21.0104 120.609 21.0312 119.234 21.0312C118.943 21.0312 118.401 21.0312 117.609 21.0312C116.839 21.0104 116.005 20.9792 115.109 20.9375C114.234 20.875 113.411 20.8021 112.641 20.7188C111.87 20.6354 111.359 20.5208 111.109 20.375C110.464 20 109.953 19.5208 109.578 18.9375C109.224 18.3542 108.943 17.7188 108.734 17.0312C108.547 16.3438 108.411 15.6458 108.328 14.9375C108.266 14.2083 108.224 13.5104 108.203 12.8438C108.182 12.7396 108.172 12.6354 108.172 12.5312C108.193 12.4062 108.203 12.2917 108.203 12.1875C108.203 11.0833 108.318 10.0625 108.547 9.125C108.797 8.16667 109.245 7.23958 109.891 6.34375C110.328 5.71875 110.974 5.19792 111.828 4.78125C112.682 4.36458 113.609 4.04167 114.609 3.8125C115.609 3.5625 116.609 3.39583 117.609 3.3125C118.609 3.20833 119.474 3.15625 120.203 3.15625C120.849 3.15625 121.641 3.21875 122.578 3.34375C123.516 3.44792 124.443 3.63542 125.359 3.90625C126.297 4.17708 127.141 4.53125 127.891 4.96875C128.641 5.38542 129.151 5.90625 129.422 6.53125C129.464 6.65625 129.505 6.875 129.547 7.1875C129.609 7.47917 129.672 7.82292 129.734 8.21875C129.797 8.59375 129.849 9 129.891 9.4375C129.953 9.875 130.005 10.2917 130.047 10.6875C130.089 11.0833 130.12 11.4375 130.141 11.75C130.182 12.0625 130.214 12.2812 130.234 12.4062ZM125.984 10.125C125.859 9.20833 125.62 8.48958 125.266 7.96875C124.932 7.42708 124.505 7.03125 123.984 6.78125C123.484 6.51042 122.901 6.34375 122.234 6.28125C121.589 6.19792 120.891 6.15625 120.141 6.15625C119.891 6.15625 119.578 6.16667 119.203 6.1875C118.828 6.1875 118.453 6.21875 118.078 6.28125C117.703 6.32292 117.349 6.39583 117.016 6.5C116.682 6.60417 116.422 6.75 116.234 6.9375C116.089 7.0625 115.964 7.23958 115.859 7.46875C115.776 7.67708 115.703 7.90625 115.641 8.15625C115.578 8.40625 115.526 8.65625 115.484 8.90625C115.464 9.13542 115.453 9.33333 115.453 9.5C115.453 9.83333 115.484 10.1562 115.547 10.4688L125.984 10.125ZM150.891 14.7188C150.891 15.2812 150.891 15.8542 150.891 16.4375C150.891 17 150.87 17.5625 150.828 18.125L143.859 18.5625C143.943 17.4792 144.005 16.4062 144.047 15.3438C144.109 14.2812 144.141 13.1979 144.141 12.0938C144.141 11.9896 144.141 11.8125 144.141 11.5625C144.141 11.3125 144.13 11.0521 144.109 10.7812C144.089 10.4896 144.068 10.2188 144.047 9.96875C144.026 9.71875 144.005 9.54167 143.984 9.4375C143.88 9.14583 143.766 8.89583 143.641 8.6875C143.536 8.47917 143.401 8.3125 143.234 8.1875C143.089 8.0625 142.901 7.97917 142.672 7.9375C142.443 7.875 142.161 7.84375 141.828 7.84375C141.578 7.84375 141.255 7.86458 140.859 7.90625C140.484 7.94792 140.099 8.01042 139.703 8.09375C139.307 8.17708 138.932 8.28125 138.578 8.40625C138.224 8.53125 137.974 8.67708 137.828 8.84375L137.766 18.0625C137.724 17.9792 137.599 17.9375 137.391 17.9375C137.203 17.9375 137.068 17.9375 136.984 17.9375C136.359 17.9375 135.714 17.9688 135.047 18.0312C134.38 18.0729 133.734 18.1354 133.109 18.2188C132.839 15.7604 132.599 13.3125 132.391 10.875C132.182 8.4375 131.943 5.98958 131.672 3.53125C132.089 3.51042 132.505 3.5 132.922 3.5C133.339 3.47917 133.755 3.46875 134.172 3.46875C134.714 3.46875 135.255 3.48958 135.797 3.53125C136.359 3.55208 136.911 3.57292 137.453 3.59375L137.672 6C138.255 5.04167 139.047 4.23958 140.047 3.59375C141.047 2.94792 142.12 2.625 143.266 2.625C143.849 2.625 144.453 2.65625 145.078 2.71875C145.703 2.78125 146.297 2.90625 146.859 3.09375C147.443 3.28125 147.984 3.54167 148.484 3.875C149.005 4.20833 149.443 4.63542 149.797 5.15625C149.964 5.40625 150.099 5.78125 150.203 6.28125C150.328 6.76042 150.432 7.3125 150.516 7.9375C150.599 8.54167 150.661 9.1875 150.703 9.875C150.766 10.5625 150.807 11.2188 150.828 11.8438C150.849 12.4688 150.859 13.0417 150.859 13.5625C150.88 14.0625 150.891 14.4479 150.891 14.7188Z" fill="white"/>
</svg>
