<svg width="160" height="44" viewBox="0 0 160 44" fill="none" xmlns="http://www.w3.org/2000/svg">
<g filter="url(#filter0_d_952_665)">
<path d="M4.96641 18.84C4.96641 16.76 5.28641 14.92 5.92641 13.32C6.59307 11.72 7.48641 10.3867 8.60641 9.32C9.75307 8.22667 11.0864 7.4 12.6064 6.84C14.1531 6.28 15.8197 6 17.6064 6C19.3931 6 21.0464 6.28 22.5664 6.84C24.1131 7.4 25.4597 8.22667 26.6064 9.32C27.7531 10.3867 28.6464 11.72 29.2864 13.32C29.9531 14.92 30.2864 16.76 30.2864 18.84C30.2864 21.4533 29.8064 23.68 28.8464 25.52C27.8864 27.3333 26.5797 28.76 24.9264 29.8C25.3264 29.9867 25.7931 30.1867 26.3264 30.4C26.8864 30.6133 27.4597 30.8267 28.0464 31.04C28.6597 31.2533 29.2864 31.4533 29.9264 31.64C30.5664 31.8533 31.1664 32.04 31.7264 32.2C31.7531 32.36 31.7664 32.4933 31.7664 32.6C31.7664 32.7333 31.7664 32.8533 31.7664 32.96C31.7664 34.48 31.3664 35.5867 30.5664 36.28C29.7931 36.9733 28.7664 37.32 27.4864 37.32C26.2597 37.32 24.9931 36.9733 23.6864 36.28C22.3797 35.6133 21.0464 34.64 19.6864 33.36L17.9264 31.72H17.6064C15.7931 31.72 14.1131 31.44 12.5664 30.88C11.0197 30.2933 9.68641 29.4533 8.56641 28.36C7.44641 27.2667 6.56641 25.92 5.92641 24.32C5.28641 22.72 4.96641 20.8933 4.96641 18.84ZM12.1664 18.84C12.1664 21.2667 12.6597 23.08 13.6464 24.28C14.6331 25.48 15.9531 26.08 17.6064 26.08C19.2864 26.08 20.6197 25.48 21.6064 24.28C22.5931 23.08 23.0864 21.2667 23.0864 18.84C23.0864 16.44 22.5931 14.64 21.6064 13.44C20.6464 12.24 19.3264 11.64 17.6464 11.64C15.9931 11.64 14.6597 12.24 13.6464 13.44C12.6597 14.6133 12.1664 16.4133 12.1664 18.84ZM33.8495 11.84C34.1162 11.76 34.5295 11.68 35.0895 11.6C35.6762 11.52 36.2762 11.48 36.8895 11.48C37.4762 11.48 37.9962 11.52 38.4495 11.6C38.9295 11.68 39.3295 11.84 39.6495 12.08C39.9695 12.32 40.2095 12.6533 40.3695 13.08C40.5562 13.48 40.6495 14.0133 40.6495 14.68V23.28C40.6495 24.3733 40.9162 25.16 41.4495 25.64C41.9829 26.0933 42.7562 26.32 43.7695 26.32C44.3829 26.32 44.8762 26.2667 45.2495 26.16C45.6495 26.0533 45.9562 25.9467 46.1695 25.84V11.84C46.4362 11.76 46.8495 11.68 47.4095 11.6C47.9962 11.52 48.5962 11.48 49.2095 11.48C49.7962 11.48 50.3162 11.52 50.7695 11.6C51.2495 11.68 51.6495 11.84 51.9695 12.08C52.2895 12.32 52.5295 12.6533 52.6895 13.08C52.8762 13.48 52.9695 14.0133 52.9695 14.68V26.84C52.9695 28.1733 52.4095 29.1733 51.2895 29.84C50.3562 30.4267 49.2362 30.8667 47.9295 31.16C46.6495 31.48 45.2495 31.64 43.7295 31.64C42.2895 31.64 40.9562 31.48 39.7295 31.16C38.5295 30.84 37.4895 30.3467 36.6095 29.68C35.7295 29.0133 35.0495 28.16 34.5695 27.12C34.0895 26.0533 33.8495 24.7733 33.8495 23.28V11.84ZM56.9708 6.16C56.9708 5.14666 57.3041 4.29333 57.9708 3.6C58.6641 2.90667 59.5708 2.56 60.6908 2.56C61.8108 2.56 62.7041 2.90667 63.3708 3.6C64.0641 4.29333 64.4108 5.14666 64.4108 6.16C64.4108 7.17333 64.0641 8.02667 63.3708 8.72C62.7041 9.41333 61.8108 9.76 60.6908 9.76C59.5708 9.76 58.6641 9.41333 57.9708 8.72C57.3041 8.02667 56.9708 7.17333 56.9708 6.16ZM64.0908 30.96C63.7974 31.0133 63.3574 31.08 62.7708 31.16C62.2108 31.2667 61.6374 31.32 61.0508 31.32C60.4641 31.32 59.9308 31.28 59.4508 31.2C58.9974 31.12 58.6108 30.96 58.2908 30.72C57.9708 30.48 57.7174 30.16 57.5308 29.76C57.3708 29.3333 57.2908 28.7867 57.2908 28.12V11.84C57.5841 11.7867 58.0108 11.72 58.5708 11.64C59.1574 11.5333 59.7441 11.48 60.3308 11.48C60.9174 11.48 61.4374 11.52 61.8908 11.6C62.3708 11.68 62.7708 11.84 63.0908 12.08C63.4108 12.32 63.6508 12.6533 63.8108 13.08C63.9974 13.48 64.0908 14.0133 64.0908 14.68V30.96ZM69.0998 31C68.6732 30.6267 68.3265 30.1867 68.0598 29.68C67.8198 29.1733 67.6998 28.6 67.6998 27.96C67.6998 27.4267 67.8198 26.9067 68.0598 26.4C68.3265 25.8667 68.6465 25.3733 69.0198 24.92L75.8998 16.84H68.5398C68.3798 16.5467 68.2198 16.1733 68.0598 15.72C67.9265 15.2667 67.8598 14.7733 67.8598 14.24C67.8598 13.3067 68.0598 12.64 68.4598 12.24C68.8865 11.8133 69.4465 11.6 70.1398 11.6H82.7398C83.1665 11.9733 83.4998 12.4133 83.7398 12.92C84.0065 13.4267 84.1398 14 84.1398 14.64C84.1398 15.1733 84.0065 15.7067 83.7398 16.24C83.4998 16.7467 83.1932 17.2267 82.8198 17.68L76.0998 25.76H83.9398C84.0998 26.0533 84.2465 26.4267 84.3798 26.88C84.5398 27.3333 84.6198 27.8267 84.6198 28.36C84.6198 29.2933 84.4065 29.9733 83.9798 30.4C83.5798 30.8 83.0332 31 82.3398 31H69.0998ZM110.158 27.04C110.158 27.8667 110.011 28.48 109.718 28.88C109.424 29.28 108.958 29.6667 108.318 30.04C107.944 30.2533 107.478 30.4667 106.918 30.68C106.358 30.8667 105.744 31.0267 105.078 31.16C104.411 31.32 103.704 31.44 102.958 31.52C102.238 31.6 101.518 31.64 100.798 31.64C98.8777 31.64 97.0777 31.3867 95.3977 30.88C93.7177 30.3467 92.251 29.56 90.9977 28.52C89.771 27.4533 88.7977 26.1333 88.0777 24.56C87.3577 22.9867 86.9977 21.16 86.9977 19.08C86.9977 16.8933 87.3843 14.9867 88.1577 13.36C88.9577 11.7333 89.9977 10.3867 91.2777 9.32C92.5843 8.22667 94.0643 7.41333 95.7177 6.88C97.3977 6.34667 99.1177 6.08 100.878 6.08C103.411 6.08 105.411 6.49333 106.878 7.32C108.371 8.12 109.118 9.17333 109.118 10.48C109.118 11.1733 108.944 11.7733 108.598 12.28C108.251 12.7867 107.851 13.1867 107.398 13.48C106.731 13.08 105.891 12.6933 104.878 12.32C103.891 11.92 102.771 11.72 101.518 11.72C99.2777 11.72 97.491 12.36 96.1577 13.64C94.851 14.92 94.1977 16.6933 94.1977 18.96C94.1977 20.1867 94.371 21.2533 94.7177 22.16C95.091 23.04 95.5843 23.7733 96.1977 24.36C96.811 24.92 97.5177 25.3467 98.3177 25.64C99.1177 25.9067 99.971 26.04 100.878 26.04C101.464 26.04 101.984 25.9867 102.438 25.88C102.891 25.7733 103.238 25.6533 103.478 25.52V21.76H99.1977C99.0377 21.4667 98.8777 21.08 98.7177 20.6C98.5843 20.12 98.5177 19.6133 98.5177 19.08C98.5177 18.12 98.731 17.4267 99.1577 17C99.611 16.5733 100.184 16.36 100.878 16.36H107.638C108.438 16.36 109.051 16.5867 109.478 17.04C109.931 17.4667 110.158 18.08 110.158 18.88V27.04ZM124.52 31.64C122.947 31.64 121.48 31.4267 120.12 31C118.787 30.5467 117.613 29.88 116.6 29C115.613 28.12 114.827 27.0133 114.24 25.68C113.68 24.3467 113.4 22.7867 113.4 21C113.4 19.24 113.68 17.7333 114.24 16.48C114.827 15.2 115.587 14.16 116.52 13.36C117.453 12.5333 118.52 11.9333 119.72 11.56C120.92 11.16 122.147 10.96 123.4 10.96C124.813 10.96 126.093 11.1733 127.24 11.6C128.413 12.0267 129.413 12.6133 130.24 13.36C131.093 14.1067 131.747 15 132.2 16.04C132.68 17.08 132.92 18.2133 132.92 19.44C132.92 20.3467 132.667 21.04 132.16 21.52C131.653 22 130.947 22.3067 130.04 22.44L120.16 23.92C120.453 24.8 121.053 25.4667 121.96 25.92C122.867 26.3467 123.907 26.56 125.08 26.56C126.173 26.56 127.2 26.4267 128.16 26.16C129.147 25.8667 129.947 25.5333 130.56 25.16C130.987 25.4267 131.347 25.8 131.64 26.28C131.933 26.76 132.08 27.2667 132.08 27.8C132.08 29 131.52 29.8933 130.4 30.48C129.547 30.9333 128.587 31.24 127.52 31.4C126.453 31.56 125.453 31.64 124.52 31.64ZM123.4 15.92C122.76 15.92 122.2 16.0267 121.72 16.24C121.267 16.4533 120.893 16.7333 120.6 17.08C120.307 17.4 120.08 17.7733 119.92 18.2C119.787 18.6 119.707 19.0133 119.68 19.44L126.52 18.32C126.44 17.7867 126.147 17.2533 125.64 16.72C125.133 16.1867 124.387 15.92 123.4 15.92ZM148.513 18.68C148.513 17.8533 148.273 17.2533 147.793 16.88C147.34 16.48 146.713 16.28 145.913 16.28C145.38 16.28 144.847 16.3467 144.313 16.48C143.807 16.6133 143.367 16.8133 142.993 17.08V30.96C142.727 31.04 142.3 31.12 141.713 31.2C141.153 31.28 140.567 31.32 139.953 31.32C139.367 31.32 138.833 31.28 138.353 31.2C137.9 31.12 137.513 30.96 137.193 30.72C136.873 30.48 136.62 30.16 136.433 29.76C136.273 29.3333 136.193 28.7867 136.193 28.12V16.12C136.193 15.4 136.34 14.8133 136.633 14.36C136.953 13.9067 137.38 13.4933 137.913 13.12C138.82 12.48 139.953 11.96 141.313 11.56C142.7 11.16 144.233 10.96 145.913 10.96C148.927 10.96 151.247 11.6267 152.873 12.96C154.5 14.2667 155.313 16.0933 155.313 18.44V30.96C155.047 31.04 154.62 31.12 154.033 31.2C153.473 31.28 152.887 31.32 152.273 31.32C151.687 31.32 151.153 31.28 150.673 31.2C150.22 31.12 149.833 30.96 149.513 30.72C149.193 30.48 148.94 30.16 148.753 29.76C148.593 29.3333 148.513 28.7867 148.513 28.12V18.68Z" fill="#2563EB"/>
</g>
<defs>
<filter id="filter0_d_952_665" x="0.966431" y="0.560059" width="158.347" height="42.76" filterUnits="userSpaceOnUse" color-interpolation-filters="sRGB">
<feFlood flood-opacity="0" result="BackgroundImageFix"/>
<feColorMatrix in="SourceAlpha" type="matrix" values="0 0 0 0 0 0 0 0 0 0 0 0 0 0 0 0 0 0 127 0" result="hardAlpha"/>
<feOffset dy="2"/>
<feGaussianBlur stdDeviation="2"/>
<feComposite in2="hardAlpha" operator="out"/>
<feColorMatrix type="matrix" values="0 0 0 0 0 0 0 0 0 0 0 0 0 0 0 0 0 0 0.25 0"/>
<feBlend mode="normal" in2="BackgroundImageFix" result="effect1_dropShadow_952_665"/>
<feBlend mode="normal" in="SourceGraphic" in2="effect1_dropShadow_952_665" result="shape"/>
</filter>
</defs>
</svg>
