<svg xmlns="http://www.w3.org/2000/svg"  viewBox="0 0 85 85" width="400px" height="400px"><path fill="#78a2d2" d="M69,82H31c-7.18,0-13-5.82-13-13V31c0-7.18,5.82-13,13-13h38c7.18,0,13,5.82,13,13v38 C82,76.18,76.18,82,69,82z"/><path fill="#1f212b" d="M30,17c-7.168,0-13,5.832-13,13v39c0,7.168,5.832,13,13,13h39c7.168,0,13-5.832,13-13V30 c0-7.168-5.832-13-13-13H30z M30,19h39c6.065,0,11,4.935,11,11v39c0,6.065-4.935,11-11,11H30c-6.065,0-11-4.935-11-11V30 C19,23.935,23.935,19,30,19z"/><path fill="#1f212b" d="M32.838,22C26.862,22,22,26.862,22,32.838v33.326C22,72.14,26.862,77,32.838,77h33.324 C72.138,77,77,72.139,77,66.164V47.502c0-0.276-0.224-0.5-0.5-0.5s-0.5,0.224-0.5,0.5v18.662C76,71.588,71.586,76,66.162,76H32.838 C27.414,76,23,71.588,23,66.164V32.838C23,27.414,27.414,23,32.838,23H66.5c0.276,0,0.5-0.224,0.5-0.5S66.776,22,66.5,22H32.838z M76.5,37.002c-0.276,0-0.5,0.224-0.5,0.5v2c0,0.276,0.224,0.5,0.5,0.5s0.5-0.224,0.5-0.5v-2C77,37.226,76.776,37.002,76.5,37.002z M76.5,41.002c-0.276,0-0.5,0.224-0.5,0.5v4c0,0.276,0.224,0.5,0.5,0.5s0.5-0.224,0.5-0.5v-4C77,41.226,76.776,41.002,76.5,41.002z"/><path fill="#fff" d="M70,68l-6.317-6.712c3.098-3.326,5.002-7.715,5.002-12.538c0-10.339-8.677-18.75-19.342-18.75 S30,38.411,30,48.75S38.677,67.5,49.343,67.5c3.055,0,5.936-0.709,8.507-1.937L60,68H70z M49.343,59.5 C43.088,59.5,38,54.678,38,48.75S43.088,38,49.343,38s11.342,4.822,11.342,10.75c0,2.536-0.937,4.865-2.492,6.706L54,51h-9 l7.186,8.144C51.276,59.368,50.326,59.5,49.343,59.5z"/><path fill="#1f212b" d="M70,68.5H60c-0.144,0-0.28-0.062-0.375-0.169l-1.902-2.156C55.063,67.386,52.246,68,49.343,68 C38.401,68,29.5,59.364,29.5,48.75S38.401,29.5,49.343,29.5c10.941,0,19.842,8.636,19.842,19.25c0,4.596-1.708,9.027-4.821,12.532 l6,6.375c0.137,0.146,0.174,0.358,0.095,0.541C70.38,68.382,70.2,68.5,70,68.5z M60.226,67.5h8.617l-5.524-5.869 c-0.18-0.191-0.181-0.491-0.001-0.684c3.139-3.371,4.868-7.703,4.868-12.197c0-10.063-8.453-18.25-18.842-18.25 c-10.39,0-18.843,8.187-18.843,18.25S38.953,67,49.343,67c2.878,0,5.667-0.635,8.292-1.888c0.202-0.098,0.443-0.047,0.59,0.12 L60.226,67.5z M49.343,60C42.813,60,37.5,54.953,37.5,48.75S42.813,37.5,49.343,37.5c6.53,0,11.842,5.047,11.842,11.25 c0,2.578-0.902,5.008-2.61,7.028c-0.092,0.108-0.226,0.173-0.369,0.177c-0.148,0.006-0.279-0.054-0.377-0.157L53.784,51.5h-7.676 l6.453,7.313c0.116,0.132,0.154,0.313,0.102,0.48s-0.188,0.295-0.358,0.336C51.306,59.876,50.309,60,49.343,60z M49.343,38.5 c-5.979,0-10.843,4.598-10.843,10.25S43.364,59,49.343,59c0.622,0,1.258-0.057,1.9-0.168l-6.618-7.501 c-0.13-0.147-0.162-0.357-0.081-0.537C44.625,50.615,44.803,50.5,45,50.5h9c0.138,0,0.27,0.057,0.364,0.157l3.799,4.036 c1.325-1.745,2.022-3.788,2.022-5.943C60.185,43.098,55.321,38.5,49.343,38.5z"/></svg>